<?xml version="1.0" encoding="UTF-8"?>
<svg version="1.1" xmlns="http://www.w3.org/2000/svg" width="2524" height="640">
<path d="M0 0 C832.92 0 1665.84 0 2524 0 C2524 211.2 2524 422.4 2524 640 C1691.08 640 858.16 640 0 640 C0 428.8 0 217.6 0 0 Z " fill="#D7232D" transform="translate(0,0)"/>
<path d="M0 0 C223.74 0 447.48 0 678 0 C674.01314803 6.2650531 670.03784097 12.48546145 665.875 18.625 C662.73317111 23.29038943 659.82737088 27.97081118 657.1796875 32.9375 C655.89674017 35.18053374 654.45514259 37.22120303 652.9375 39.3125 C648.80496236 45.08906892 645.23728274 51.17727749 641.6105957 57.27734375 C638.13042803 63.12777904 634.58460654 68.92714509 630.94360352 74.67871094 C628.36873291 78.76196198 625.86969849 82.88357417 623.40625 87.03515625 C622.78089355 88.08276123 622.15553711 89.13036621 621.51123047 90.2097168 C620.27263695 92.28820048 619.04221084 94.37157735 617.82080078 96.46020508 C617.25345215 97.40919678 616.68610352 98.35818848 616.1015625 99.3359375 C615.59963379 100.18720215 615.09770508 101.0384668 614.58056641 101.91552734 C612.88516041 104.15145203 611.58476891 104.9860774 609 106 C608.01 105.01 607.02 104.02 606 103 C607.47509352 97.67466239 609.96895164 93.52525655 612.9375 88.9375 C613.82193428 87.55098513 614.70605629 86.16427101 615.58984375 84.77734375 C616.00476074 84.13007324 616.41967773 83.48280273 616.84716797 82.81591797 C618.27377748 80.56875119 619.6463836 78.29176638 621 76 C620.67 75.67 620.34 75.34 620 75 C613.90134109 83.40080168 608.44504149 92.16961077 603 101 C600.525 99.515 600.525 99.515 598 98 C598.165 97.21625 598.33 96.4325 598.5 95.625 C599.0623707 93.11791961 599.0623707 93.11791961 599 91 C598.01 92.32 597.02 93.64 596 95 C593.525 94.01 593.525 94.01 591 93 C591 88.67568077 591.54890357 87.68478403 593.8125 84.1875 C596.30580704 80.20881855 598.29123097 76.3668542 600 72 C595.31943923 77.24790147 591.68878981 83.02564878 588 89 C584.06157492 87.34870852 581.10991457 84.6563851 577.9375 81.875 C573.01749959 77.63113595 567.97424362 73.71926101 562.671875 69.95703125 C559.89555822 67.92350098 557.26408838 65.77063898 554.625 63.5625 C550.21159727 59.90245193 545.65101249 56.582866 540.89794922 53.37744141 C537.21083381 50.8813977 533.72965084 48.21265245 530.25 45.4375 C512.47713042 32.04923017 492.20078934 28.01658065 470.34375 30.3984375 C440.88810931 35.69769996 415.28236625 56.26436706 393 75 C392.37963867 75.52126465 391.75927734 76.0425293 391.12011719 76.57958984 C384.09089412 82.50666345 377.2051353 88.56941935 370.4296875 94.78515625 C368.39484585 96.64006817 366.33678753 98.45428798 364.25 100.25 C359.60165735 104.28621522 355.13697931 108.5190115 350.64746094 112.72973633 C346.96892607 116.17594752 343.26293804 119.58307664 339.5 122.9375 C336.11026198 125.96365226 332.88131202 129.09416662 329.6953125 132.33203125 C327.31206999 134.67683437 324.79342446 136.84579429 322.2578125 139.0234375 C318.53466831 142.28279903 314.93538086 145.68016636 311.3203125 149.05859375 C309 151 309 151 307 151 C306.67 151.99 306.34 152.98 306 154 C304.328125 155.4296875 304.328125 155.4296875 302.25 156.875 C298.82986523 159.34307598 295.95091931 161.97530771 293 165 C291.67477339 166.17586705 290.34074399 167.34185733 289 168.5 C286.7503303 170.44747527 284.60616461 172.39383539 282.5 174.5 C279.1503954 177.8496046 275.5896278 180.91111965 272 184 C271.48727539 184.4429541 270.97455078 184.8859082 270.44628906 185.34228516 C264.2537707 190.69134598 258.03702513 196.01218932 251.75 201.25 C250.87859375 201.97703125 250.0071875 202.7040625 249.109375 203.453125 C247 205 247 205 245 205 C245 205.66 245 206.32 245 207 C243.07887142 208.66786083 241.1490385 210.2147386 239.125 211.75 C237.82938536 212.74864379 236.53381452 213.74734441 235.23828125 214.74609375 C234.2011499 215.54055908 234.2011499 215.54055908 233.14306641 216.35107422 C230.99514884 218.00373259 228.86106957 219.67274708 226.73046875 221.34765625 C210.27963094 234.26675874 193.5221837 246.5697583 176 258 C172.40541764 254.48931274 169.04754878 250.84672014 165.8125 247 C165.3369165 246.43531006 164.86133301 245.87062012 164.37133789 245.28881836 C142.89323905 219.60267827 124.60691621 191.06131743 107.171875 162.53125 C104.41965249 158.04105972 101.61763943 153.58225921 98.8125 149.125 C98.31306885 148.32787598 97.8136377 147.53075195 97.29907227 146.70947266 C95.01497244 143.08699448 92.69664254 139.55142927 90.13671875 136.1171875 C88 133 88 133 88 130 C87.34 130 86.68 130 86 130 C85.72679932 129.49243164 85.45359863 128.98486328 85.17211914 128.46191406 C81.50033265 121.73865103 77.50252013 115.24124159 73.4375 108.75 C72.77814453 107.6878125 72.11878906 106.625625 71.43945312 105.53125 C70.47749023 103.99210937 70.47749023 103.99210937 69.49609375 102.421875 C68.92044678 101.49987305 68.3447998 100.57787109 67.75170898 99.62792969 C65.9700319 96.95504159 64.0100141 94.50337652 62 92 C60.98937306 90.27260228 59.97987786 88.54414654 59.00927734 86.79394531 C57.38973681 83.91528448 55.5982046 81.15276271 53.8125 78.375 C53.43101807 77.78033936 53.04953613 77.18567871 52.65649414 76.57299805 C50.63342679 73.4419326 48.56510109 70.35332799 46.4140625 67.30859375 C45.79180786 66.4271167 45.79180786 66.4271167 45.15698242 65.52783203 C43.9960537 63.89486203 42.8244717 62.26948128 41.65234375 60.64453125 C40 58 40 58 40 55 C39.34 55 38.68 55 38 55 C36.68865213 53.27276644 35.46869842 51.47598298 34.2890625 49.65625 C33.92472107 49.09993393 33.56037964 48.54361786 33.18499756 47.97044373 C32.40111917 46.77331539 31.62005314 45.57434183 30.8414917 44.37374878 C28.81297879 41.24925267 26.75964852 38.14126534 24.703125 35.03515625 C24.29722137 34.42193008 23.89131775 33.80870392 23.47311401 33.17689514 C16.67505898 22.95262244 9.18957322 13.24765894 1.328125 3.8203125 C0 2 0 2 0 0 Z " fill="#E62029" transform="translate(1466,0)"/>
<path d="M0 0 C0.89332031 -0.01224609 1.78664063 -0.02449219 2.70703125 -0.03710938 C4.00060547 -0.04000977 4.00060547 -0.04000977 5.3203125 -0.04296875 C6.09906738 -0.04707764 6.87782227 -0.05118652 7.68017578 -0.05541992 C10.12667604 0.21535513 11.75404084 0.96883901 13.875 2.1875 C12.04469477 4.01780523 9.40745544 3.71018192 6.94775391 4.03515625 C-25.69570148 8.45449975 -51.5488497 26.08938632 -76.36035156 46.72705078 C-78.84370498 48.7823109 -81.36245214 50.79310265 -83.875 52.8125 C-88.28055958 56.41345139 -92.47255236 60.21737328 -96.63452148 64.09326172 C-99.96670252 67.17903574 -103.39671151 70.08936917 -106.9375 72.9375 C-110.68343127 75.953565 -114.12671926 79.07105668 -117.46875 82.5234375 C-119.80795431 84.8736758 -122.3138437 87.00759049 -124.82421875 89.171875 C-127.63272975 91.6323023 -130.37963571 94.15723201 -133.125 96.6875 C-136.40341665 99.70690754 -139.6908138 102.70952504 -143.0625 105.625 C-146.53235202 108.6298203 -149.89157689 111.74709588 -153.25 114.875 C-158.32468616 119.59522612 -163.52679993 124.13223146 -168.81616211 128.609375 C-173.09350734 132.2507785 -177.22131143 136.02638088 -181.3125 139.875 C-186.15239509 144.4210229 -191.10256893 148.73057572 -196.2890625 152.8828125 C-199.58696366 155.56292501 -202.79041131 158.34045544 -206 161.125 C-223.5126274 176.24515238 -223.5126274 176.24515238 -230.125 179.1875 C-230.125 179.8475 -230.125 180.5075 -230.125 181.1875 C-231.0221875 181.5896875 -231.0221875 181.5896875 -231.9375 182 C-234.15023467 183.20119882 -235.35931997 184.41863522 -237.125 186.1875 C-238.49954458 187.28387316 -239.89350307 188.35612824 -241.30078125 189.41015625 C-242.1218335 190.02616699 -242.94288574 190.64217773 -243.78881836 191.27685547 C-244.6628833 191.92799316 -245.53694824 192.57913086 -246.4375 193.25 C-247.33670166 193.9217627 -248.23590332 194.59352539 -249.16235352 195.28564453 C-259.65010915 203.0997571 -270.30345563 210.65452197 -281.0703125 218.078125 C-284.7603401 220.6262259 -288.43246943 223.19922686 -292.1015625 225.77734375 C-296.99480609 229.1875 -296.99480609 229.1875 -300.125 229.1875 C-296.79475571 220.83366687 -286.024725 215.29615483 -278.95703125 210.23046875 C-274.88314317 207.29165017 -270.8814142 204.25906403 -266.87109375 201.234375 C-264.58527674 199.53057967 -262.27784915 197.87723663 -259.9375 196.25 C-257.08442853 194.48702763 -257.08442853 194.48702763 -256.125 192.1875 C-254.46279419 191.18010254 -252.79479326 190.18227045 -251.125 189.1875 C-245.89600337 185.85761698 -245.89600337 185.85761698 -242.125 181.1875 C-240.36812198 180.19725966 -238.60885766 179.20944748 -236.81640625 178.28515625 C-234.80733132 177.13998983 -234.80733132 177.13998983 -233.125 174.1875 C-232.465 174.1875 -231.805 174.1875 -231.125 174.1875 C-231.125 173.5275 -231.125 172.8675 -231.125 172.1875 C-230.50625 171.919375 -229.8875 171.65125 -229.25 171.375 C-226.8254767 170.23193152 -226.8254767 170.23193152 -225.125 167.1875 C-224.2278125 166.754375 -224.2278125 166.754375 -223.3125 166.3125 C-220.30588542 164.76624107 -218.46572151 162.63461794 -216.125 160.1875 C-211.70700475 155.57948345 -207.32958767 151.36374951 -202.08203125 147.70703125 C-199.54226075 145.7350338 -197.38282986 143.47574972 -195.125 141.1875 C-193.28045601 139.46878121 -191.42572456 137.7609496 -189.5625 136.0625 C-188.49866973 135.09117671 -187.43486846 134.11982164 -186.37109375 133.1484375 C-185.56260986 132.41125488 -185.56260986 132.41125488 -184.73779297 131.65917969 C-182.19603849 129.3398191 -179.66062413 127.01355809 -177.125 124.6875 C-174.18698387 121.99233833 -171.24738907 119.29905518 -168.30078125 116.61328125 C-160.94356365 109.89844009 -153.68476356 103.08322663 -146.4375 96.25 C-136.99458794 87.34861695 -127.51400538 78.48706309 -117.92578125 69.7421875 C-116.02077669 68.00456828 -114.12256949 66.25947391 -112.23046875 64.5078125 C-111.32941406 63.68023437 -110.42835938 62.85265625 -109.5 62 C-108.70335937 61.26394531 -107.90671875 60.52789062 -107.0859375 59.76953125 C-105.125 58.1875 -105.125 58.1875 -103.125 58.1875 C-103.125 57.5275 -103.125 56.8675 -103.125 56.1875 C-101.61712839 54.81258701 -100.03960239 53.51385538 -98.4375 52.25 C-94.72280114 49.28488277 -91.058801 46.292178 -87.46411133 43.18310547 C-79.9962623 36.74210003 -72.19056066 30.85775846 -64.125 25.1875 C-63.19252441 24.53152832 -63.19252441 24.53152832 -62.24121094 23.86230469 C-43.32506992 10.66339233 -23.58260813 0.01716347 0 0 Z " fill="#E3212A" transform="translate(1948.125,36.8125)"/>
<path d="M0 0 C1.59415741 0.03642105 1.59415741 0.03642105 3.22052002 0.07357788 C54.00411681 1.2488649 104.5230582 5.76547049 153.52026367 19.86743164 C159.05879399 21.45122046 164.63589586 22.7756202 170.25 24.0625 C187.53938473 28.07390618 204.42098202 33.54387164 221.0625 39.6875 C222.10857422 40.07252686 222.10857422 40.07252686 223.17578125 40.46533203 C231.18493895 43.42117977 239.1591165 46.45775194 247.0625 49.6875 C247.0625 50.3475 247.0625 51.0075 247.0625 51.6875 C247.92568848 51.79835937 248.78887695 51.90921875 249.67822266 52.0234375 C253.19409452 52.71332146 255.96517938 53.80757078 259.2109375 55.3125 C260.37334961 55.84979736 261.53576172 56.38709473 262.73339844 56.94067383 C263.96839954 57.52231142 265.20309439 58.10459967 266.4375 58.6875 C267.06499146 58.98095306 267.69248291 59.27440613 268.33898926 59.57675171 C276.92978438 63.5966767 285.3026411 67.86645058 293.49609375 72.6484375 C297.20974005 74.80646385 301.02249766 76.7287395 304.875 78.625 C322.85188444 87.49938413 340.44737159 96.97977788 357.28125 107.890625 C359.45760107 109.29669451 361.64430426 110.67769812 363.84375 112.046875 C365.14585055 112.86455591 366.44793405 113.68226399 367.75 114.5 C368.37543701 114.88551025 369.00087402 115.27102051 369.64526367 115.66821289 C371.15263125 116.62149134 372.61291856 117.64845695 374.0625 118.6875 C374.0625 119.3475 374.0625 120.0075 374.0625 120.6875 C374.73925781 120.91179687 375.41601562 121.13609375 376.11328125 121.3671875 C379.88915276 123.05757766 382.95345776 125.33600981 386.25 127.8125 C386.91056396 128.30242432 387.57112793 128.79234863 388.25170898 129.29711914 C392.90998359 132.77055817 397.46345353 136.36039862 401.96484375 140.03515625 C403.82115633 141.4973913 405.69319109 142.79928345 407.6875 144.0625 C408.47125 144.59875 409.255 145.135 410.0625 145.6875 C410.0625 146.3475 410.0625 147.0075 410.0625 147.6875 C410.62453125 147.94273437 411.1865625 148.19796875 411.765625 148.4609375 C414.35636482 149.84442781 416.51357845 151.48688583 418.8125 153.3125 C419.61171875 153.94414062 420.4109375 154.57578125 421.234375 155.2265625 C421.83765625 155.70867187 422.4409375 156.19078125 423.0625 156.6875 C422.7325 157.6775 422.4025 158.6675 422.0625 159.6875 C421.59054199 159.34605957 421.11858398 159.00461914 420.63232422 158.65283203 C412.07604142 152.46419521 403.51982296 146.27599707 394.9128418 140.15795898 C391.32659956 137.60519179 387.78438615 134.99886562 384.25 132.375 C381.12685603 130.08955062 378.0475905 128.05330037 374.625 126.25 C370.80460608 124.23387083 367.48908908 121.81700641 364.0625 119.1875 C359.94106485 116.02999089 355.89406754 113.31917246 351.3046875 110.91015625 C348.82272552 109.55675189 346.48976094 108.04895436 344.125 106.5 C337.14925528 102.01697292 329.89543816 98.06543272 322.62353516 94.08935547 C319.93713478 92.61887778 317.25555109 91.13985272 314.57421875 89.66015625 C303.84976582 83.75630017 293.07414443 78.03548246 282.0625 72.6875 C281.13566406 72.23375 280.20882813 71.78 279.25390625 71.3125 C258.80924915 61.31154672 238.20584447 52.58827659 216.85351562 44.72509766 C214.41967454 43.82028445 211.99707475 42.8929173 209.578125 41.94921875 C169.8587583 26.58826381 128.06616366 17.12864303 86.0625 10.6875 C84.98033203 10.52024414 83.89816406 10.35298828 82.78320312 10.18066406 C76.55523478 9.23363814 70.32140834 8.40150466 64.0625 7.6875 C63.26376465 7.5951709 62.4650293 7.5028418 61.64208984 7.40771484 C13.05094931 2.01733247 -36.07936116 2.41305356 -84.58837891 8.12841797 C-88.39502083 8.57327559 -92.10505578 8.76438546 -95.9375 8.6875 C-92.81709878 6.92720314 -90.05995126 6.22584788 -86.52734375 5.6875 C-85.46491455 5.52354736 -84.40248535 5.35959473 -83.30786133 5.19067383 C-82.17501709 5.02462646 -81.04217285 4.8585791 -79.875 4.6875 C-78.70412842 4.51307373 -77.53325684 4.33864746 -76.3269043 4.15893555 C-50.88658441 0.43659857 -25.69800781 -0.62985562 0 0 Z " fill="#E8232B" transform="translate(1060.9375,2.3125)"/>
<path d="M0 0 C11.22 0 22.44 0 34 0 C30.02054461 1.9897277 26.13293359 3.14368282 21.875 4.3125 C-0.09233974 10.61308392 -15.17557842 25.98251353 -30.9675293 41.72729492 C-32.92374005 43.67380826 -34.89040277 45.60933971 -36.85742188 47.54492188 C-44.94549753 55.56528613 -52.18708317 63.87654691 -59 73 C-60.15086234 74.50534545 -61.30187365 76.01057704 -62.453125 77.515625 C-63.38706213 78.75918259 -64.31944383 80.00391041 -65.25 81.25 C-65.7140625 81.86617188 -66.178125 82.48234375 -66.65625 83.1171875 C-70.55875435 88.32767408 -74.28196969 93.65699218 -78 99 C-79.11908684 100.59684835 -80.23886875 102.19320983 -81.359375 103.7890625 C-86.8137008 111.56652707 -92.25787515 119.34952812 -97.625 127.1875 C-101.90548715 133.43808254 -106.25620866 139.63629515 -110.63427734 145.81884766 C-115.13666825 152.18030942 -119.57951918 158.58137254 -124 165 C-126.4375 164.25 -126.4375 164.25 -129 163 C-129.79663086 161.1418457 -129.79663086 161.1418457 -130 159 C-129.17407227 157.25854492 -129.17407227 157.25854492 -127.81640625 155.48046875 C-127.30916016 154.79992432 -126.80191406 154.11937988 -126.27929688 153.41821289 C-125.71275391 152.68207764 -125.14621094 151.94594238 -124.5625 151.1875 C-123.35335549 149.56667853 -122.1464272 147.94420203 -120.94140625 146.3203125 C-120.2983252 145.45825195 -119.65524414 144.59619141 -118.99267578 143.70800781 C-115.57013355 139.05683918 -112.28721619 134.3098185 -109 129.5625 C-108.32420898 128.58925781 -107.64841797 127.61601563 -106.95214844 126.61328125 C-103.24856565 121.27215658 -99.57117439 115.91396118 -95.91430664 110.54077148 C-89.12092352 100.56036912 -82.12414271 90.74655179 -75 81 C-74.41009277 80.18934082 -73.82018555 79.37868164 -73.21240234 78.54345703 C-66.38057724 69.15723463 -59.52735065 59.84657705 -52 51 C-51.53883789 50.45537109 -51.07767578 49.91074219 -50.60253906 49.34960938 C-47.09492272 45.20984617 -43.55711659 41.09727134 -40 37 C-39.54463867 36.47325684 -39.08927734 35.94651367 -38.62011719 35.40380859 C-37.37840476 33.97173713 -36.12699652 32.54808929 -34.875 31.125 C-33.81925781 29.92230469 -33.81925781 29.92230469 -32.7421875 28.6953125 C-31 27 -31 27 -29 27 C-28.773125 26.443125 -28.54625 25.88625 -28.3125 25.3125 C-26.62449964 22.33840412 -24.53323483 20.27991135 -22 18 C-21.34 18 -20.68 18 -20 18 C-20 17.34 -20 16.68 -20 16 C-17.78581383 14.1084693 -15.56433016 12.32350321 -13.25 10.5625 C-12.29867187 9.82676758 -12.29867187 9.82676758 -11.328125 9.07617188 C-10.10041885 8.12853619 -8.86940832 7.18516245 -7.63476562 6.24658203 C-6.30208534 5.2303536 -4.98463304 4.19418025 -3.671875 3.15234375 C-2 2 -2 2 0 2 C0 1.34 0 0.68 0 0 Z " fill="#E7222A" transform="translate(2281,0)"/>
<path d="M0 0 C5.61 0 11.22 0 17 0 C14.18388484 2.81611516 11.68561726 5.07880262 8.56640625 7.44921875 C2.49922017 12.2573664 -2.92266896 17.62093988 -8.3684082 23.10766602 C-10.05658809 24.80655061 -11.75518087 26.49448954 -13.45507812 28.18164062 C-20.0823189 34.80025257 -26.20639608 41.62652231 -32 49 C-33.07231502 50.32446024 -34.1463377 51.64754115 -35.22265625 52.96875 C-43.66041647 63.43515093 -51.49645068 74.25989289 -59.22875977 85.25390625 C-62.91963293 90.49456688 -66.66836577 95.69045489 -70.4375 100.875 C-75.42579287 107.74840355 -80.26610451 114.71084232 -85.04125977 121.73364258 C-90.72006299 130.08099517 -96.51599397 138.3449156 -102.31933594 146.60595703 C-105.21740268 150.73414449 -108.10851081 154.86720396 -111 159 C-113.16874252 158.49396008 -114.99967627 158.00016187 -117 157 C-116.63210816 151.51408349 -113.31072824 147.91243507 -110.125 143.6875 C-108.92944677 142.06884674 -107.73546297 140.44903322 -106.54296875 138.828125 C-105.94403809 138.01666016 -105.34510742 137.20519531 -104.72802734 136.36914062 C-102.22666581 132.93975205 -99.82510083 129.44663624 -97.4375 125.9375 C-93.29283994 119.86455163 -89.08108277 113.84378159 -84.82958984 107.84521484 C-81.22934689 102.75853835 -77.66666698 97.64685491 -74.11645508 92.52514648 C-64.15793578 78.16087313 -54.1233065 63.86708709 -43.38671875 50.0703125 C-41.77036627 47.99101127 -40.16786418 45.9067936 -38.58203125 43.8046875 C-32.80794653 36.16962933 -26.73943883 28.84043203 -20.43408203 21.63818359 C-19.4948874 20.56532081 -18.55826021 19.49020374 -17.62451172 18.41259766 C-16.38091634 16.97796388 -15.12822855 15.55122639 -13.875 14.125 C-12.81925781 12.92230469 -12.81925781 12.92230469 -11.7421875 11.6953125 C-10 10 -10 10 -8 10 C-8 9.34 -8 8.68 -8 8 C-6.50390625 6.5625 -6.50390625 6.5625 -4.5625 5 C-1.84811762 2.85474956 -1.84811762 2.85474956 0 0 Z " fill="#E7212A" transform="translate(2260,0)"/>
<path d="M0 0 C4.95 0 9.9 0 15 0 C10.88343902 4.99099387 6.49553208 9.54475827 1.86938477 14.06518555 C-6.0058415 21.76131262 -13.38587291 29.3374857 -19.78222656 38.3203125 C-21.67953946 40.93729581 -23.66987458 43.48096945 -25.64892578 46.03637695 C-36.23505794 59.72501952 -46.2189809 73.84695641 -56.17578125 87.99609375 C-58.72405672 91.61469662 -61.29582854 95.21588623 -63.875 98.8125 C-71.61547784 109.61936775 -79.19417807 120.54134172 -86.796875 131.4453125 C-87.41723633 132.33395996 -88.03759766 133.22260742 -88.67675781 134.13818359 C-89.85439763 135.82516682 -91.03091079 137.51293734 -92.20605469 139.20166016 C-95.70495821 144.21216511 -99.29971052 149.13628617 -103 154 C-104.98 153.01 -106.96 152.02 -109 151 C-107.4052082 146.18780847 -104.69303876 142.49647249 -101.75 138.4375 C-100.66093545 136.91573865 -99.57241618 135.39358696 -98.484375 133.87109375 C-97.91396484 133.07558105 -97.34355469 132.28006836 -96.75585938 131.46044922 C-93.80693136 127.32817774 -90.90542584 123.16291411 -88 119 C-82.17845008 110.67369991 -76.32862628 102.36782085 -70.46337891 94.07226562 C-68.9874316 91.9822021 -67.51475678 89.88986911 -66.04296875 87.796875 C-59.3193995 78.24064494 -52.51075434 68.74934502 -45.65429688 59.28808594 C-43.97777455 56.9692596 -42.30827235 54.64552811 -40.640625 52.3203125 C-34.2503213 43.41813219 -27.76717904 34.62023674 -21 26 C-20.34902344 25.16597656 -19.69804687 24.33195312 -19.02734375 23.47265625 C-14.49146479 17.72596771 -9.75346869 12.16618855 -4.94775391 6.64477539 C-2.18269959 3.52569993 -2.18269959 3.52569993 0 0 Z " fill="#E7222A" transform="translate(2243,0)"/>
<path d="M0 0 C1.18181099 0.00184296 1.18181099 0.00184296 2.38749695 0.00372314 C10.97155714 0.04525145 19.53389406 0.38154844 28.10546875 0.828125 C28.93856567 0.87135895 29.7716626 0.9145929 30.63000488 0.95913696 C73.82589715 3.26085831 116.87293861 9.33746423 158.79296875 20.078125 C159.97971191 20.37267578 161.16645508 20.66722656 162.38916016 20.97070312 C183.57496931 26.23094157 204.18252122 32.92589446 224.79296875 40.078125 C225.55434143 40.34176849 226.31571411 40.60541199 227.10015869 40.87704468 C229.40391774 41.6763319 231.70613696 42.47989085 234.0078125 43.28515625 C234.70413284 43.52714752 235.40045319 43.76913879 236.11787415 44.01846313 C240.91944867 45.70810896 245.51501404 47.67757801 250.109375 49.859375 C253.18826575 51.25764853 256.31520543 52.45138517 259.48046875 53.640625 C263.21102201 55.0451207 266.81120769 56.5032917 270.35546875 58.328125 C273.02348698 59.68638883 274.9478147 60.455553 277.79296875 61.078125 C277.79296875 61.738125 277.79296875 62.398125 277.79296875 63.078125 C278.47206299 63.17617432 279.15115723 63.27422363 279.85083008 63.37524414 C283.43740384 64.2320814 286.57482252 65.71093915 289.8671875 67.32421875 C290.54386475 67.65073425 291.22054199 67.97724976 291.91772461 68.31365967 C294.10871712 69.37412261 296.29491306 70.44400635 298.48046875 71.515625 C299.22761139 71.88015778 299.97475403 72.24469055 300.74453735 72.62026978 C311.96555897 78.09899284 323.01829097 83.75917747 333.79296875 90.078125 C334.6113623 90.5525 335.42975586 91.026875 336.27294922 91.515625 C350.07448107 99.51740054 363.64411128 107.87476011 377.12890625 116.39794922 C379.55303174 117.92680109 381.98402591 119.44387995 384.41796875 120.95703125 C385.70991927 121.76777701 387.0016117 122.57893429 388.29296875 123.390625 C389.9171875 124.40576172 389.9171875 124.40576172 391.57421875 125.44140625 C392.30640625 125.98152344 393.03859375 126.52164063 393.79296875 127.078125 C393.79296875 127.738125 393.79296875 128.398125 393.79296875 129.078125 C394.45425781 129.29597656 395.11554688 129.51382813 395.796875 129.73828125 C399.80560344 131.53097206 403.17205296 133.96117361 406.73046875 136.515625 C407.85437012 137.31589111 407.85437012 137.31589111 409.00097656 138.13232422 C414.9425716 142.39521086 420.71807006 146.84175294 426.4296875 151.40625 C428.72282668 153.23861509 431.0370696 155.03762805 433.375 156.8125 C433.95926758 157.2564209 434.54353516 157.7003418 435.14550781 158.15771484 C436.74632454 159.37044093 438.34963498 160.5798733 439.953125 161.7890625 C442.79120378 164.07670235 445.37206008 166.35071597 447.79296875 169.078125 C447.79296875 170.068125 447.79296875 171.058125 447.79296875 172.078125 C444.87900652 170.73411621 442.55525877 169.20356859 440.10546875 167.13671875 C439.41275879 166.55744629 438.72004883 165.97817383 438.00634766 165.38134766 C437.27593262 164.76565918 436.54551758 164.1499707 435.79296875 163.515625 C428.94197211 157.8071898 422.00083728 152.33236297 414.79296875 147.078125 C413.94089844 146.45035156 413.08882812 145.82257813 412.2109375 145.17578125 C399.9514087 136.18791081 387.55013617 127.3472287 374.79296875 119.078125 C374.14231445 118.6562793 373.49166016 118.23443359 372.82128906 117.79980469 C353.52624346 105.33750623 333.71983969 93.36706037 313.10546875 83.203125 C311.73300676 82.52226875 310.36061298 81.84127501 308.98828125 81.16015625 C308.29766602 80.81807129 307.60705078 80.47598633 306.89550781 80.12353516 C304.79249799 79.07789093 302.69439636 78.02299794 300.59765625 76.96484375 C294.0977718 73.68690132 287.59745622 70.4453292 280.9453125 67.484375 C278.36671843 66.33407281 275.79937351 65.16445153 273.234375 63.984375 C264.04817044 59.776254 254.85335415 55.84535696 245.35546875 52.3984375 C242.27991534 51.25859424 239.2948692 50.02081967 236.29296875 48.703125 C226.37823465 44.50791098 216.0231993 41.40252438 205.79296875 38.078125 C204.20701846 37.55602842 202.62107981 37.0338965 201.03515625 36.51171875 C131.03535116 13.69622697 57.36157776 2.50516076 -16.20703125 3.078125 C-16.53703125 2.418125 -16.86703125 1.758125 -17.20703125 1.078125 C-11.4585175 0.22649333 -5.8063078 -0.01089312 0 0 Z " fill="#E6242C" transform="translate(1042.20703125,13.921875)"/>
<path d="M0 0 C1.75763672 0.08701172 1.75763672 0.08701172 3.55078125 0.17578125 C4.73027344 0.22089844 5.90976563 0.26601562 7.125 0.3125 C8.02863281 0.37050781 8.93226563 0.42851563 9.86328125 0.48828125 C4.50333361 6.81027078 4.50333361 6.81027078 1.953125 9.51171875 C-5.19278407 17.1251172 -11.18381872 25.52052827 -17.30175781 33.96386719 C-19.66652751 37.217156 -22.05698004 40.45103 -24.44897461 43.68432617 C-34.9099638 57.82833067 -45.18798438 72.09787269 -55.3125 86.484375 C-57.86077547 90.10297787 -60.43254729 93.70416748 -63.01171875 97.30078125 C-69.46386334 106.3089426 -75.79194998 115.40436852 -82.13671875 124.48828125 C-84.69838931 128.15552843 -87.26103922 131.82208864 -89.82421875 135.48828125 C-90.41235352 136.33084473 -91.00048828 137.1734082 -91.60644531 138.04150391 C-92.15655273 138.82831543 -92.70666016 139.61512695 -93.2734375 140.42578125 C-93.75514404 141.11542969 -94.23685059 141.80507812 -94.7331543 142.515625 C-96.16816418 144.5324766 -97.64332246 146.51438173 -99.13671875 148.48828125 C-103.83767315 147.04183374 -103.83767315 147.04183374 -105.0546875 144.7890625 C-105.18170653 141.22648123 -103.10108685 139.11890788 -101.01171875 136.42578125 C-100.07725976 135.17218558 -99.14508543 133.91688459 -98.21484375 132.66015625 C-97.71404297 131.98791016 -97.21324219 131.31566406 -96.69726562 130.62304688 C-93.95613036 126.87328362 -91.36722419 123.02040481 -88.76171875 119.17578125 C-79.00821063 104.85881011 -68.93776793 90.77725887 -58.7734375 76.75 C-57.15162811 74.50888392 -55.53406743 72.2647681 -53.91796875 70.01953125 C-46.6536479 59.93068711 -39.30917075 49.90376134 -31.92041016 39.90576172 C-30.10695255 37.4479384 -28.29884124 34.98626556 -26.4921875 32.5234375 C-20.46924913 24.31852187 -14.40992248 16.1590181 -8.125 8.15234375 C-6.06252947 5.56915813 -6.06252947 5.56915813 -4.78515625 2.65625 C-3.13671875 0.48828125 -3.13671875 0.48828125 0 0 Z " fill="#E6212A" transform="translate(2231.13671875,-0.48828125)"/>
<path d="M0 0 C3.07421875 0.41015625 3.07421875 0.41015625 5.3125 0.9375 C4.52875 1.824375 3.745 2.71125 2.9375 3.625 C-4.81431644 12.6958901 -11.77660282 22.3853705 -18.72875977 32.0715332 C-22.32324167 37.07248296 -25.9759439 42.02292588 -29.6875 46.9375 C-35.58852684 54.75920368 -41.32521182 62.69392227 -47.04199219 70.65087891 C-48.68251669 72.93057513 -50.32851689 75.20620498 -51.9765625 77.48046875 C-58.78681461 86.88032074 -65.52263129 96.32901917 -72.19921875 105.82421875 C-73.70214118 107.95828971 -75.20969873 110.08900926 -76.71875 112.21875 C-77.72921245 113.64580092 -78.73962935 115.07288409 -79.75 116.5 C-80.24113281 117.19303223 -80.73226562 117.88606445 -81.23828125 118.60009766 C-83.78754794 122.20791539 -86.30559011 125.83339974 -88.78125 129.4921875 C-89.28003662 130.22751709 -89.77882324 130.96284668 -90.29272461 131.72045898 C-91.24126037 133.12284265 -92.18504435 134.52845594 -93.12329102 135.93774414 C-95.14414413 138.92474217 -96.6509378 140.9131252 -99.6875 142.9375 C-101.0075 141.9475 -102.3275 140.9575 -103.6875 139.9375 C-103.07404799 136.8795475 -102.09603177 134.74813984 -100.3515625 132.171875 C-99.87009766 131.45507568 -99.38863281 130.73827637 -98.89257812 129.99975586 C-98.37115234 129.23671143 -97.84972656 128.47366699 -97.3125 127.6875 C-96.77302734 126.88900635 -96.23355469 126.0905127 -95.67773438 125.26782227 C-94.02077138 122.81992592 -92.35519683 120.37809287 -90.6875 117.9375 C-90.20893555 117.23415527 -89.73037109 116.53081055 -89.23730469 115.80615234 C-82.66572596 106.15019401 -75.94778968 96.59946677 -69.19482422 87.06982422 C-67.70920102 84.96819917 -66.23045115 82.86191707 -64.75390625 80.75390625 C-58.8653712 72.35654767 -52.86095468 64.05611294 -46.75830078 55.81298828 C-43.35831356 51.21731852 -39.99416143 46.60072288 -36.6875 41.9375 C-32.18418144 35.59110635 -27.60094548 29.30419923 -22.93408203 23.0769043 C-20.07721199 19.25416228 -17.31878854 15.42643502 -14.76953125 11.390625 C-7.44405024 0.03482597 -7.44405024 0.03482597 0 0 Z " fill="#E7212A" transform="translate(2221.6875,-0.9375)"/>
<path d="M0 0 C3.96 0 7.92 0 12 0 C8.54334043 4.639201 5.04379863 9.23947933 1.5 13.8125 C-4.57698613 21.67869718 -10.44679148 29.69693966 -16.32324219 37.71337891 C-17.84098167 39.78314419 -19.36125114 41.85101241 -20.8828125 43.91796875 C-23.59640109 47.60625604 -26.30017816 51.3016267 -29 55 C-29.50354004 55.68884277 -30.00708008 56.37768555 -30.52587891 57.08740234 C-37.22581682 66.26452431 -43.797697 75.51341593 -50.15966797 84.92871094 C-52.87435894 88.93658198 -55.63778495 92.90153973 -58.46641541 96.83010864 C-64.38410507 105.05005468 -70.03239985 113.4315127 -75.625 121.875 C-76.54274783 123.25665718 -77.46071572 124.63816823 -78.37890625 126.01953125 C-80.58846232 129.34468528 -82.79508546 132.67176655 -85 136 C-86.65 135.34 -88.3 134.68 -90 134 C-90 129.24953898 -88.37177951 126.8907049 -85.875 123.0625 C-85.43486572 122.37373779 -84.99473145 121.68497559 -84.54125977 120.9753418 C-76.46484782 108.40879468 -68.14221998 95.99335133 -59.58984375 83.74609375 C-57.41009887 80.60995771 -55.26822934 77.44898703 -53.12890625 74.28515625 C-44.61994555 61.7022434 -35.99665485 49.2389381 -27 37 C-26.4318457 36.22462891 -25.86369141 35.44925781 -25.27832031 34.65039062 C-18.46373772 25.35128565 -11.60427854 16.08740803 -4.64233398 6.89794922 C-2.10459173 3.58786583 -2.10459173 3.58786583 0 0 Z " fill="#E7212A" transform="translate(2201,0)"/>
<path d="M0 0 C1.16015625 0.06960937 2.3203125 0.13921875 3.515625 0.2109375 C4.68609375 0.26507812 5.8565625 0.31921875 7.0625 0.375 C7.95453125 0.44460937 8.8465625 0.51421875 9.765625 0.5859375 C8.48365234 2.06126953 8.48365234 2.06126953 7.17578125 3.56640625 C-16.56515155 31.2838584 -36.85301739 62.35000324 -57.00048828 92.72705078 C-59.07344275 95.8500178 -61.15432705 98.96769268 -63.234375 102.0859375 C-64.05993343 103.32419368 -64.88545419 104.56247499 -65.7109375 105.80078125 C-66.1224707 106.41808105 -66.53400391 107.03538086 -66.95800781 107.67138672 C-67.37920898 108.30318848 -67.80041016 108.93499023 -68.234375 109.5859375 C-68.6787793 110.25254395 -69.12318359 110.91915039 -69.58105469 111.60595703 C-70.03125977 112.28126465 -70.48146484 112.95657227 -70.9453125 113.65234375 C-72.2421875 115.59765625 -73.5390625 117.54296875 -74.8359375 119.48828125 C-75.41601562 120.35839844 -75.41601562 120.35839844 -76.0078125 121.24609375 C-77.1422526 122.94775391 -78.27669271 124.64941406 -79.41113281 126.35107422 C-79.77819336 126.90166504 -80.14525391 127.45225586 -80.5234375 128.01953125 C-81.08804688 128.86644531 -81.65265625 129.71335938 -82.234375 130.5859375 C-83.884375 129.9259375 -85.534375 129.2659375 -87.234375 128.5859375 C-87.234375 124.02986895 -86.42174402 122.84450034 -83.98046875 119.11328125 C-83.29017578 118.04787109 -82.59988281 116.98246094 -81.88867188 115.88476562 C-81.1500154 114.76414106 -80.41108194 113.64369903 -79.671875 112.5234375 C-78.25382019 110.34510811 -76.83585081 108.16672309 -75.41796875 105.98828125 C-74.70914551 104.90635498 -74.00032227 103.82442871 -73.27001953 102.7097168 C-71.44984743 99.91658871 -69.65830899 97.10825582 -67.87890625 94.2890625 C-63.65847902 87.63685098 -59.28536727 81.08749652 -54.91113281 74.53588867 C-53.49893328 72.42024752 -52.08918456 70.30298916 -50.6796875 68.18554688 C-38.24028183 49.52149861 -25.42923032 31.16429596 -12.05541992 13.15698242 C-11.48799072 12.3910376 -10.92056152 11.62509277 -10.3359375 10.8359375 C-9.79259766 10.10971191 -9.24925781 9.38348633 -8.68945312 8.63525391 C-7.39946155 6.81844362 -6.32829327 4.98757452 -5.2421875 3.046875 C-3.234375 0.5859375 -3.234375 0.5859375 0 0 Z " fill="#E7212A" transform="translate(2190.234375,-0.5859375)"/>
<path d="M0 0 C8.58 0 17.16 0 26 0 C26 0.66 26 1.32 26 2 C26.54785156 2.03593262 27.09570312 2.07186523 27.66015625 2.10888672 C35.58845747 2.7550755 43.2482333 4.39374761 51 6.125 C51.70274048 6.28094635 52.40548096 6.4368927 53.1295166 6.5975647 C73.38092489 11.10533333 93.18561994 16.58752228 112.875 23.125 C114.02494446 23.50584244 114.02494446 23.50584244 115.19812012 23.89437866 C124.29589133 26.91991482 133.19845486 30.18150348 142 34 C143.58761138 34.66628352 145.17610392 35.33047279 146.765625 35.9921875 C156.88480864 40.23660751 166.96111233 44.56904268 177 49 C177 49.66 177 50.32 177 51 C177.53625 51.11214844 178.0725 51.22429688 178.625 51.33984375 C186.81780715 53.40152055 193.58935647 57.50884336 200.81298828 61.73095703 C204.49502059 63.86750581 208.21540494 65.93427351 211.9375 68 C212.67661621 68.41113037 213.41573242 68.82226074 214.17724609 69.24584961 C222.05665397 73.61331727 230.02075154 77.81846979 238 82 C238 82.66 238 83.32 238 84 C238.53238281 84.0928125 239.06476563 84.185625 239.61328125 84.28125 C258.5777512 89.99231787 277.20502379 107.40221748 293.09765625 118.9140625 C296.7814056 121.56160241 300.53399994 124.10312536 304.3046875 126.625 C304.86414062 127.07875 305.42359375 127.5325 306 128 C306 128.66 306 129.32 306 130 C307.051875 130.3403125 307.051875 130.3403125 308.125 130.6875 C312.24321571 132.567555 316.20709928 134.90447666 317.875 139.3125 C317.936875 140.1478125 317.936875 140.1478125 318 141 C314.59244728 139.07119658 311.25852365 137.1723491 308 135 C308 134.34 308 133.68 308 133 C307.42765625 132.7215625 306.8553125 132.443125 306.265625 132.15625 C304.03382434 131.01726208 301.89129126 129.80063617 299.75 128.5 C299.04359375 128.0771875 298.3371875 127.654375 297.609375 127.21875 C297.07828125 126.8165625 296.5471875 126.414375 296 126 C296 125.34 296 124.68 296 124 C294.92105469 123.61714844 294.92105469 123.61714844 293.8203125 123.2265625 C290.80787617 121.91644476 288.5016001 120.34298992 285.875 118.375 C284.91851563 117.66601562 283.96203125 116.95703125 282.9765625 116.2265625 C281.99429687 115.49179688 281.01203125 114.75703125 280 114 C274.13741168 109.64628159 268.38153016 105.54529454 262 102 C260.57689059 101.0512604 259.16071991 100.09206595 257.75 99.125 C253.61108708 96.32843722 249.32663551 93.96558192 244.921875 91.6171875 C241.87394127 89.93022953 238.94464133 88.11095353 236 86.25 C229.76413058 82.36096316 223.32822943 78.95618726 216.80541992 75.57568359 C212.7266462 73.45578653 208.71906756 71.30340686 204.8125 68.875 C194.09102457 62.26714622 182.38607813 57.11641187 170.94384766 51.88867188 C169.64274571 51.29384506 168.34294528 50.69616346 167.04443359 50.09570312 C134.93701671 35.27569026 101.32904836 23.37907861 67.03271484 14.76318359 C64.08620865 14.02169443 61.14679908 13.25597863 58.20703125 12.48828125 C39.02090039 7.588232 19.50269789 4.35340507 0 1 C0 0.67 0 0.34 0 0 Z " fill="#E8242C" transform="translate(1162,0)"/>
<path d="M0 0 C7.59 0 15.18 0 23 0 C23 0.66 23 1.32 23 2 C24.24910156 2.10183594 25.49820312 2.20367187 26.78515625 2.30859375 C32.51948259 2.95145545 37.90677252 4.45933969 43.4375 6.0625 C44.50991943 6.36833008 45.58233887 6.67416016 46.68725586 6.98925781 C54.83585437 9.3311011 62.95519473 11.76930714 71.0625 14.25 C72.13749756 14.5787915 73.21249512 14.90758301 74.32006836 15.24633789 C79.95790742 16.99198783 85.49744782 18.86976026 91 21 C92.58017938 21.58871738 94.16094485 22.17586323 95.7421875 22.76171875 C106.64597304 26.83872191 117.35849562 31.18991138 127.93603516 36.05175781 C129.90562569 36.95664185 131.87997167 37.85028998 133.85546875 38.7421875 C146.08751187 44.30875087 158.07577435 50.4544771 169.51977539 57.50976562 C175.56552104 61.14233098 181.84037057 64.39513941 188.078125 67.68359375 C201.92306489 75.0246811 214.9923426 83.27367262 228 92 C229.30015742 92.86422049 230.60085515 93.72762927 231.90234375 94.58984375 C234.60708801 96.38520552 237.3049461 98.19015079 240 100 C241.09183594 100.68707031 242.18367188 101.37414062 243.30859375 102.08203125 C244.19675781 102.71496094 245.08492187 103.34789063 246 104 C246 104.66 246 105.32 246 106 C246.66515625 106.21398437 247.3303125 106.42796875 248.015625 106.6484375 C252.01934184 108.46163911 255.26929166 110.96453384 258.75 113.625 C259.45576172 114.15899414 260.16152344 114.69298828 260.88867188 115.24316406 C266.14591453 119.25730297 271.18884107 123.45612768 276 128 C275.67 128.66 275.34 129.32 275 130 C273.35 129.34 271.7 128.68 270 128 C270 127.34 270 126.68 270 126 C269.1646875 125.5978125 269.1646875 125.5978125 268.3125 125.1875 C265.78774666 123.89100504 263.36285516 122.57523677 261 121 C261 120.34 261 119.68 261 119 C260.34 118.79375 259.68 118.5875 259 118.375 C255.62949037 116.83018309 253.04910234 114.85872925 250.13671875 112.58984375 C247.37008523 110.53130656 244.45336406 108.80001773 241.46875 107.078125 C240.9840625 106.72234375 240.499375 106.3665625 240 106 C240 105.34 240 104.68 240 104 C238.97326172 103.64421875 238.97326172 103.64421875 237.92578125 103.28125 C234.39489858 101.73501567 231.34743075 99.67713731 228.1875 97.5 C216.2096847 89.38983495 204.0467193 81.77022218 191.21923828 75.06982422 C189.18665719 74.00709374 187.15544732 72.94180169 185.125 71.875 C184.40731445 71.49835205 183.68962891 71.1217041 182.95019531 70.73364258 C178.04978261 68.14103198 173.2321456 65.42862837 168.43676758 62.64697266 C133.65846548 42.47691634 95.69692912 26.05951412 57 15 C55.60177002 14.599021 55.60177002 14.599021 54.17529297 14.18994141 C36.26894888 9.10813773 18.17777389 4.9708021 0 1 C0 0.67 0 0.34 0 0 Z " fill="#E8242C" transform="translate(1202,0)"/>
<path d="M0 0 C0.79664062 0.10441406 1.59328125 0.20882813 2.4140625 0.31640625 C-0.57008651 4.31922464 -3.56819118 8.30920508 -6.62890625 12.25390625 C-7.14646484 12.92292969 -7.66402344 13.59195312 -8.19726562 14.28125 C-9.22559838 15.60903529 -10.25672351 16.93466403 -11.29101562 18.2578125 C-17.04521583 25.71774733 -22.29327802 33.52673193 -27.5859375 41.31640625 C-28.14286285 42.13544434 -28.69978821 42.95448242 -29.27359009 43.79833984 C-32.94337182 49.19834701 -36.60301723 54.60512909 -40.2565918 60.01611328 C-41.51838361 61.88380616 -42.78140609 63.75066821 -44.0456543 65.61669922 C-51.79039542 77.04822126 -59.36331703 88.54792054 -66.5859375 100.31640625 C-69.03391409 104.28129267 -71.4928149 108.2390368 -73.9609375 112.19140625 C-74.55003906 113.15175781 -75.13914062 114.11210938 -75.74609375 115.1015625 C-76.31972656 116.01550781 -76.89335937 116.92945312 -77.484375 117.87109375 C-78.23726807 119.08514893 -78.23726807 119.08514893 -79.00537109 120.32373047 C-80.70644478 122.46833402 -82.06845392 123.30982117 -84.5859375 124.31640625 C-85.9059375 122.99640625 -87.2259375 121.67640625 -88.5859375 120.31640625 C-87.8515625 119.15364583 -87.1171875 117.99088542 -86.3828125 116.828125 C-85.66375732 115.68960083 -85.66375732 115.68960083 -84.93017578 114.52807617 C-83.85047197 112.8185727 -82.77071786 111.10910099 -81.69091797 109.3996582 C-78.51371408 104.36962057 -75.33806059 99.33861152 -72.16430664 94.30639648 C-70.66736137 91.93487107 -69.16776598 89.56503512 -67.66796875 87.1953125 C-65.63387509 83.98050561 -63.61185484 80.75855291 -61.59765625 77.53125 C-53.92374788 65.29147369 -45.92079628 53.28712276 -37.8359375 41.31640625 C-37.30441071 40.52848694 -36.77288391 39.74056763 -36.22525024 38.92877197 C-30.52367565 30.48395894 -24.79517773 22.06914408 -18.77056885 13.85009766 C-16.45684705 10.66483664 -14.50502916 7.44343661 -12.7109375 3.94140625 C-9.55159133 -1.02721665 -5.45452393 -0.41804745 0 0 Z " fill="#E7212A" transform="translate(2182.5859375,-0.31640625)"/>
<path d="M0 0 C3.96 0 7.92 0 12 0 C11.11570312 1.17304688 10.23140625 2.34609375 9.3203125 3.5546875 C-12.27420519 32.36841274 -31.43965314 63.08767068 -50.60107422 93.54492188 C-52.19145154 96.07220227 -53.78320929 98.59860966 -55.375 101.125 C-55.8505835 101.88216309 -56.32616699 102.63932617 -56.81616211 103.41943359 C-60.12558325 108.67117735 -63.53470245 113.84986659 -67 119 C-68.65 118.01 -70.3 117.02 -72 116 C-71.42544859 112.08232659 -70.27292589 109.43296896 -68.1484375 106.10546875 C-67.551521 105.16131104 -66.95460449 104.21715332 -66.33959961 103.24438477 C-65.3671228 101.73122681 -65.3671228 101.73122681 -64.375 100.1875 C-63.00884535 98.03402495 -61.64296816 95.88037385 -60.27734375 93.7265625 C-59.57206543 92.61958008 -58.86678711 91.51259766 -58.14013672 90.37207031 C-54.08250759 83.97873544 -50.09860374 77.53917062 -46.10107422 71.1081543 C-43.39928252 66.77757246 -40.67032411 62.47825819 -37.81640625 58.24609375 C-35.73847041 55.15950107 -33.84897588 52.03006528 -32.03710938 48.78271484 C-29.94416019 45.18508891 -27.57548806 41.76235526 -25.25 38.3125 C-24.17447789 36.70833419 -23.09895706 35.10416752 -22.0234375 33.5 C-21.24371582 32.33984375 -21.24371582 32.33984375 -20.44824219 31.15625 C-18.58338984 28.37972 -16.72853947 25.59659194 -14.875 22.8125 C-12.69515748 19.54044165 -10.51205983 16.27061922 -8.32421875 13.00390625 C-7.63706787 11.97656372 -7.63706787 11.97656372 -6.93603516 10.9284668 C-6.03690836 9.58425146 -5.13687801 8.24063995 -4.23583984 6.89770508 C-1.97119289 3.536117 -1.97119289 3.536117 0 0 Z " fill="#E7222A" transform="translate(2159,0)"/>
<path d="M0 0 C3.96 0 7.92 0 12 0 C10.79923828 1.30324219 10.79923828 1.30324219 9.57421875 2.6328125 C4.73158278 8.28846646 0.84439247 14.63368069 -3.1875 20.875 C-4.04279123 22.1911107 -4.89850733 23.5069454 -5.75463867 24.82250977 C-7.81828415 27.99594808 -9.87636653 31.17294512 -11.93249512 34.35125732 C-13.34964819 36.54002554 -14.7721793 38.72527279 -16.1953125 40.91015625 C-28.9103298 60.45509877 -41.41284307 80.14801736 -53.484375 100.09765625 C-53.85191895 100.70279053 -54.21946289 101.3079248 -54.59814453 101.93139648 C-55.54060573 103.48580765 -56.47760536 105.04352681 -57.4140625 106.6015625 C-58.79930015 108.69647855 -60.1441886 110.32414607 -62 112 C-63.9375 111.1875 -63.9375 111.1875 -66 110 C-67 107 -67 107 -65.95874023 104.82128906 C-65.41419189 103.97791992 -64.86964355 103.13455078 -64.30859375 102.265625 C-63.70063965 101.31083252 -63.09268555 100.35604004 -62.46630859 99.37231445 C-61.79680176 98.34195068 -61.12729492 97.31158691 -60.4375 96.25 C-59.04168576 94.06201586 -57.64718535 91.8731931 -56.25390625 89.68359375 C-55.89711792 89.12556564 -55.54032959 88.56753754 -55.17272949 87.99259949 C-51.65411147 82.48413029 -48.25651345 76.90577872 -44.875 71.3125 C-16.89328205 25.17470552 -16.89328205 25.17470552 -2.27734375 4.953125 C-0.83452519 2.92790477 -0.83452519 2.92790477 0 0 Z " fill="#E8222A" transform="translate(2146,0)"/>
<path d="M0 0 C5.94 0 11.88 0 18 0 C18 0.66 18 1.32 18 2 C19.010625 2.103125 20.02125 2.20625 21.0625 2.3125 C24.4592903 2.90559037 26.98508635 3.83662701 30.10131836 5.2175293 C33.23179776 6.50763943 36.49098085 7.35383733 39.75 8.25 C71.90469546 17.49609476 102.51490697 32.37004257 131.72729492 48.47558594 C137.02783543 51.39649139 142.35913875 54.23465615 147.74536133 56.99414062 C166.42828929 66.58879693 184.38711748 77.36740088 201.33105469 89.78515625 C203.54681109 91.39802984 205.80313023 92.94901349 208.0625 94.5 C214.50038994 98.994376 220.7536053 103.75013552 227.00097656 108.50439453 C228.40911753 109.55792062 229.83481871 110.58817588 231.27246094 111.60107422 C232.37122559 112.38442139 232.37122559 112.38442139 233.4921875 113.18359375 C234.49934814 113.88633423 234.49934814 113.88633423 235.52685547 114.60327148 C236.25606201 115.2946521 236.25606201 115.2946521 237 116 C237 116.99 237 117.98 237 119 C233.45294712 117.39458033 230.49520749 115.2545274 227.375 112.9375 C223.82484836 110.24523621 223.82484836 110.24523621 220 108 C220 107.34 220 106.68 220 106 C219.27296875 105.74089844 218.5459375 105.48179688 217.796875 105.21484375 C214.89356935 103.95377104 212.75909944 102.4842784 210.25 100.5625 C202.74622877 94.99258659 194.88243329 90.01284925 187 85 C186.34370605 84.57960449 185.68741211 84.15920898 185.01123047 83.72607422 C170.86422698 74.66983488 156.28932221 66.33356547 141.484375 58.40234375 C138.66519214 56.81101254 135.97194631 55.06484109 133.25 53.3125 C124.44811704 47.82970417 115.02560402 43.60116226 105.63525391 39.23388672 C103.46834834 38.21929151 101.31459216 37.18542444 99.16796875 36.12890625 C82.18896848 27.88648121 64.29077003 21.3016945 46.4453125 15.19140625 C43.53897799 14.18638128 40.67949544 13.10994965 37.8125 12 C30.50355449 9.31255696 22.92111667 7.46431068 15.40234375 5.46484375 C10.23469246 4.08411631 5.11351373 2.56832886 0 1 C0 0.67 0 0.34 0 0 Z " fill="#E8242D" transform="translate(1238,0)"/>
<path d="M0 0 C5.61 0 11.22 0 17 0 C17.33 0.66 17.66 1.32 18 2 C19.78728578 2.63810034 21.60807591 3.18275253 23.4375 3.6875 C46.44977995 10.51888105 68.77445377 20.87428076 90 32 C90.66338379 32.34740234 91.32676758 32.69480469 92.01025391 33.05273438 C95.55539487 34.91428848 99.09271493 36.78995761 102.625 38.67578125 C105.51059787 40.21455208 108.40583682 41.73188451 111.3125 43.23046875 C133.77889002 54.84156148 155.37461808 67.3459251 176 82 C177.33669708 82.93697234 178.67389299 83.87323368 180.01171875 84.80859375 C201.72126228 100.06457721 201.72126228 100.06457721 207 106 C207 106.66 207 107.32 207 108 C203.169847 106.66012316 200.47540207 104.97767866 197.375 102.375 C188.92617061 95.45095934 180.03413617 89.22775399 170.89941406 83.24560547 C169.49604808 82.32530042 168.09464973 81.40199333 166.69433594 80.47705078 C153.79704032 71.90368222 153.79704032 71.90368222 140.34765625 64.24609375 C137.93467637 62.96532739 135.6328188 61.56612057 133.3125 60.125 C128.28037268 57.05741518 123.04170149 54.49183694 117.7565918 51.89770508 C113.61534318 49.85096028 109.68956502 47.66206415 105.8203125 45.1328125 C102.95618618 43.3504163 99.943772 41.9040232 96.9140625 40.42578125 C94.19816555 39.09695768 91.50428683 37.7291927 88.81054688 36.35620117 C72.28322021 27.97788055 55.49509419 20.13417203 38 14 C36.66111359 13.51918808 35.32258004 13.03739258 33.984375 12.5546875 C22.72065834 8.51337518 11.36290731 4.75138244 0 1 C0 0.67 0 0.34 0 0 Z " fill="#E8242D" transform="translate(1265,0)"/>
<path d="M0 0 C4.62 0 9.24 0 14 0 C14.33 0.66 14.66 1.32 15 2 C16.90775907 2.67302119 18.84742758 3.25635956 20.796875 3.796875 C27.54555959 5.78871262 33.84623982 8.35284357 40.25 11.25 C41.33845215 11.73742676 42.4269043 12.22485352 43.54833984 12.72705078 C45.71796174 13.70169689 47.88583083 14.68025609 50.05175781 15.66308594 C52.55834866 16.79972816 55.07068113 17.92180221 57.5859375 19.0390625 C68.9009117 24.13825821 79.59503745 30.29040138 90.34228516 36.47949219 C92.66973195 37.81105002 95.00668124 39.12065541 97.35546875 40.4140625 C110.53853501 47.67488976 123.40753546 55.5603794 135.64453125 64.33203125 C140.35273102 67.66603009 145.18876031 70.81730708 150 74 C149.67 74.66 149.34 75.32 149 76 C142.97039971 72.43441906 137.00241301 68.77494563 131.0625 65.0625 C130.36769531 64.62905273 129.67289063 64.19560547 128.95703125 63.74902344 C125.10424833 61.3392236 121.29442027 58.87599797 117.5 56.375 C111.87973073 52.78005299 105.95824769 49.89702852 99.9765625 46.96484375 C92.98818245 43.53427578 86.13346505 39.83853594 79.41015625 35.9140625 C69.13759699 29.94896659 58.53788776 24.9883536 47.67626953 20.18945312 C44.91279764 18.96124339 42.16081435 17.70974649 39.41015625 16.453125 C26.50661007 10.57822841 13.54644043 5.21174829 0 1 C0 0.67 0 0.34 0 0 Z " fill="#E9242D" transform="translate(1290,0)"/>
<path d="M0 0 C1.06326508 -0.00637985 2.12653015 -0.0127597 3.22201538 -0.01933289 C4.36256378 -0.02044571 5.50311218 -0.02155853 6.67822266 -0.02270508 C7.87798737 -0.02603348 9.07775208 -0.02936188 10.31387329 -0.03279114 C12.86077493 -0.03785175 15.40768319 -0.04019973 17.95458984 -0.04003906 C21.76623251 -0.04219334 25.57756992 -0.06026793 29.38916016 -0.0793457 C44.85514347 -0.11596344 60.08708438 0.52181351 75.46728516 2.14526367 C76.31021118 2.23214447 77.15313721 2.31902527 78.02160645 2.40853882 C83.57408786 2.98759274 89.11575289 3.63726843 94.65478516 4.33276367 C95.4949115 4.43786255 96.33503784 4.54296143 97.20062256 4.65124512 C139.38247265 9.99181701 180.82567811 19.76165186 221.46728516 32.14526367 C220.80728516 33.13526367 220.14728516 34.12526367 219.46728516 35.14526367 C218.57654297 34.87713867 217.68580078 34.60901367 216.76806641 34.33276367 C212.00879574 32.91046005 207.23932923 31.52403346 202.46728516 30.14526367 C201.44844238 29.85055176 200.42959961 29.55583984 199.37988281 29.25219727 C130.01685897 9.32315276 61.51149122 2.51077097 -10.53271484 3.14526367 C-10.86271484 2.48526367 -11.19271484 1.82526367 -11.53271484 1.14526367 C-7.64331574 0.42588158 -3.95363686 0.01625924 0 0 Z " fill="#E9252D" transform="translate(1017.53271484375,19.854736328125)"/>
<path d="M0 0 C3.63 0 7.26 0 11 0 C11.33 0.66 11.66 1.32 12 2 C13.88034469 3.05503847 13.88034469 3.05503847 16.22265625 4.0390625 C17.13732666 4.44624512 18.05199707 4.85342773 18.99438477 5.27294922 C20.00686279 5.71912598 21.01934082 6.16530273 22.0625 6.625 C44.80680765 16.86418599 67.02111591 28.08906409 88.59277344 40.6171875 C90.78926116 41.87894272 92.99986182 43.10508617 95.2265625 44.3125 C114.34169619 54.69946686 131.98125606 67.49908348 149.15234375 80.80078125 C151.4214442 82.55318667 153.70050511 84.28784597 156 86 C155.67 87.32 155.34 88.64 155 90 C153.33275095 88.79247036 151.66623622 87.58392683 150 86.375 C149.071875 85.70210938 148.14375 85.02921875 147.1875 84.3359375 C144.82485478 82.60448916 142.47889355 80.85749552 140.140625 79.09375 C136.06225556 76.02916328 131.92091429 73.06199872 127.75 70.125 C127.01056152 69.60397705 126.27112305 69.0829541 125.50927734 68.54614258 C111.70954743 58.85400957 97.52625694 49.81793204 83.02978516 41.20898438 C80.95701757 39.97439873 78.8904893 38.72979834 76.82421875 37.484375 C57.95687779 26.16744787 37.95135612 17.21168883 18 8 C16.93821533 7.50781982 15.87643066 7.01563965 14.7824707 6.50854492 C13.81269287 6.0622876 12.84291504 5.61603027 11.84375 5.15625 C11.00392578 4.76888672 10.16410156 4.38152344 9.29882812 3.98242188 C6.24621257 2.67786315 3.22168295 1.7875225 0 1 C0 0.67 0 0.34 0 0 Z " fill="#E8262E" transform="translate(1312,0)"/>
<path d="M0 0 C3.63 0 7.26 0 11 0 C11 0.66 11 1.32 11 2 C12.29587036 2.39832031 12.29587036 2.39832031 13.61791992 2.8046875 C16.99015098 3.99651911 19.96359918 5.43560945 23.11328125 7.125 C24.27045654 7.74407227 25.42763184 8.36314453 26.61987305 9.00097656 C27.85100668 9.66684093 29.0818772 10.333192 30.3125 11 C31.2518187 11.50654114 31.2518187 11.50654114 32.21011353 12.02331543 C48.26581938 20.68382909 63.77027235 29.96026942 79 40 C80.06992188 40.69996094 81.13984375 41.39992187 82.2421875 42.12109375 C89.38990183 46.83251819 96.36229079 51.76680392 103.29833984 56.78173828 C104.96476623 57.97477525 106.64530472 59.14448662 108.33203125 60.30859375 C109.83830078 61.36240234 109.83830078 61.36240234 111.375 62.4375 C112.26960938 63.05496094 113.16421875 63.67242187 114.0859375 64.30859375 C114.71757813 64.86675781 115.34921875 65.42492187 116 66 C116 66.99 116 67.98 116 69 C113.25532979 67.7068634 110.89505574 66.27963075 108.49609375 64.42578125 C107.84406982 63.92691406 107.1920459 63.42804687 106.52026367 62.9140625 C105.83295166 62.38554688 105.14563965 61.85703125 104.4375 61.3125 C99.10539642 57.26815651 93.76333168 53.39211637 88.05859375 49.8828125 C85.6557779 48.40368448 83.27981181 46.8980508 80.91015625 45.3671875 C57.81662541 30.49851221 33.58426896 17.46145097 8.86938477 5.49682617 C5.57559657 3.88300043 2.97319152 2.22989364 0 0 Z " fill="#E9262E" transform="translate(1346,0)"/>
<path d="M0 0 C2.97 0 5.94 0 9 0 C9 0.66 9 1.32 9 2 C10.23492188 2.37382813 11.46984375 2.74765625 12.7421875 3.1328125 C18.81150967 5.1622347 24.42469497 7.9885262 30.125 10.875 C31.25647461 11.44436279 32.38794922 12.01372559 33.55371094 12.6003418 C44.05998718 17.93773527 54.32017254 23.67086127 64.52050781 29.56787109 C66.79795179 30.88329906 69.08070894 32.1886379 71.3671875 33.48828125 C93.61835484 46.13856423 115.89289801 59.88250648 135 77 C134.01 77.495 134.01 77.495 133 78 C131.16106176 76.71632558 129.32897375 75.42283239 127.5 74.125 C126.4790625 73.40570313 125.458125 72.68640625 124.40625 71.9453125 C123.6121875 71.30335937 122.818125 70.66140625 122 70 C122 69.34 122 68.68 122 68 C121.30648438 67.76410156 120.61296875 67.52820313 119.8984375 67.28515625 C116.45486733 65.75829023 113.62066348 63.68084731 110.625 61.4375 C103.35751532 56.1259032 95.79120415 51.4964369 88 47 C87.41750488 46.66258789 86.83500977 46.32517578 86.23486328 45.97753906 C82.77228789 43.9752035 79.29773359 41.99465489 75.81542969 40.02685547 C73.92963681 38.9602007 72.04681769 37.88841241 70.1640625 36.81640625 C57.50873499 29.62993226 44.78069381 22.63495486 31.53198242 16.59765625 C26.36345959 14.22328234 21.37283583 11.57130001 16.3762207 8.85717773 C11.03344031 5.97197671 5.57389049 3.41033102 0 1 C0 0.67 0 0.34 0 0 Z " fill="#E9262E" transform="translate(1330,0)"/>
<path d="M0 0 C1.32 0.33 2.64 0.66 4 1 C-0.63033447 8.7515229 -5.28492273 16.48718443 -10 24.1875 C-14.89164926 32.17740105 -19.76254674 40.17980939 -24.625 48.1875 C-25.1806514 49.10251282 -25.1806514 49.10251282 -25.74752808 50.03601074 C-29.87002509 56.82605899 -33.9829163 63.62155378 -38.0625 70.4375 C-38.72765625 71.54222656 -39.3928125 72.64695312 -40.078125 73.78515625 C-41.4601481 76.09695506 -42.82234341 78.41557494 -44.171875 80.74609375 C-44.88520159 81.95585601 -45.59873525 83.1654962 -46.3125 84.375 C-46.92738281 85.43460937 -47.54226562 86.49421875 -48.17578125 87.5859375 C-50 90 -50 90 -52.23046875 90.8515625 C-52.81441406 90.90054688 -53.39835937 90.94953125 -54 91 C-52.46229724 86.76520354 -50.3452276 82.9931007 -48.03515625 79.14453125 C-47.64611115 78.49014069 -47.25706604 77.83575012 -46.85623169 77.16152954 C-45.595295 75.04299177 -44.32908257 72.92766635 -43.0625 70.8125 C-42.18836798 69.34719989 -41.31442671 67.88178598 -40.44067383 66.41625977 C-34.82160112 57.00115979 -29.15000032 47.61979139 -23.40136719 38.28320312 C-20.52321287 33.59391755 -17.67058358 28.8890343 -14.8125 24.1875 C-9.89926632 16.10991224 -4.9705717 8.04244675 0 0 Z " fill="#E83038" transform="translate(2118,0)"/>
<path d="M0 0 C0.99 0 1.98 0 3 0 C1.31249535 4.97369792 -1.48537478 9.11827133 -4.3125 13.5 C-5.40576796 15.21301858 -6.49818661 16.92657944 -7.58984375 18.640625 C-8.15429199 19.52556641 -8.71874023 20.41050781 -9.30029297 21.32226562 C-12.02328162 25.61208745 -14.70228491 29.92872871 -17.375 34.25 C-17.90512695 35.1066626 -18.43525391 35.9633252 -18.98144531 36.84594727 C-23.80670808 44.65920564 -28.5789223 52.5046735 -33.33154297 60.36230469 C-41.47483867 73.7957706 -41.47483867 73.7957706 -44.25 74.875 C-44.8275 74.91625 -45.405 74.9575 -46 75 C-44.57332592 71.12823012 -42.76020198 67.75084814 -40.61328125 64.23046875 C-39.92959473 63.10616455 -39.2459082 61.98186035 -38.54150391 60.82348633 C-37.7987151 59.61136064 -37.05570854 58.39936837 -36.3125 57.1875 C-35.5459055 55.93197982 -34.7794687 54.67636334 -34.01318359 53.4206543 C-24.71253736 38.20032168 -15.30065086 23.04772444 -5.625 8.0625 C-5.16625488 7.35198486 -4.70750977 6.64146973 -4.23486328 5.90942383 C-1.12918316 1.12918316 -1.12918316 1.12918316 0 0 Z " fill="#E93038" transform="translate(2131,0)"/>
<path d="M0 0 C0.99 0 1.98 0 3 0 C1.69304537 3.46752482 0.17373493 6.59196016 -1.72265625 9.7734375 C-2.25640869 10.67271973 -2.79016113 11.57200195 -3.34008789 12.49853516 C-3.90848389 13.44776855 -4.47687988 14.39700195 -5.0625 15.375 C-5.6495874 16.36161621 -6.2366748 17.34823242 -6.84155273 18.36474609 C-8.5571759 21.24548994 -10.27769316 24.12324835 -12 27 C-12.42796875 27.71607422 -12.8559375 28.43214844 -13.296875 29.16992188 C-15.45289471 32.77682472 -17.61669291 36.37898276 -19.78417969 39.97900391 C-22.25597954 44.08775073 -24.72101941 48.20055871 -27.1875 52.3125 C-30.0950813 57.15862906 -30.0950813 57.15862906 -31.54052734 59.54541016 C-32.57188771 61.27998645 -33.57483685 63.03160592 -34.55712891 64.79443359 C-35.07065918 65.7014502 -35.58418945 66.6084668 -36.11328125 67.54296875 C-36.57130127 68.37207764 -37.02932129 69.20118652 -37.5012207 70.05541992 C-39 72 -39 72 -41.18041992 72.77856445 C-42.08111206 72.88817505 -42.08111206 72.88817505 -43 73 C-41.74026872 68.84980502 -40.20032406 65.34864243 -37.9453125 61.6484375 C-37.33671387 60.64264648 -36.72811523 59.63685547 -36.10107422 58.60058594 C-35.44896973 57.53614258 -34.79686523 56.47169922 -34.125 55.375 C-32.7550932 53.11725735 -31.38530291 50.85944401 -30.015625 48.6015625 C-28.9937207 46.92368652 -28.9937207 46.92368652 -27.95117188 45.21191406 C-25.72063422 41.5401231 -23.51562262 37.85369282 -21.31518555 34.16381836 C-16.5471706 26.17240223 -11.70407726 18.22886617 -6.8125 10.3125 C-5.96437744 8.93819824 -5.96437744 8.93819824 -5.09912109 7.53613281 C-4.31722412 6.27494629 -4.31722412 6.27494629 -3.51953125 4.98828125 C-3.05651611 4.24102783 -2.59350098 3.49377441 -2.11645508 2.72387695 C-1 1 -1 1 0 0 Z " fill="#E93038" transform="translate(2107,0)"/>
<path d="M0 0 C27.55587941 6.02158247 54.50595589 13.59754047 81.1875 22.75 C81.83128601 22.9703894 82.47507202 23.19077881 83.1383667 23.41784668 C90.26790294 25.8697805 97.34112573 28.45980955 104.36328125 31.203125 C105.01322556 31.45221619 105.66316986 31.70130737 106.33280945 31.95794678 C110.88296321 33.76592643 110.88296321 33.76592643 112 36 C105.46466823 35.52296848 99.79279865 33.1933024 93.71392822 30.85327148 C62.85766322 19.03492481 30.87065684 10.58500134 -1 2 C-0.67 1.34 -0.34 0.68 0 0 Z " fill="#E7252D" transform="translate(1157,43)"/>
<path d="M0 0 C1.43655854 -0.08131463 2.8744483 -0.13933559 4.3125 -0.1875 C5.51326172 -0.23970703 5.51326172 -0.23970703 6.73828125 -0.29296875 C9.59286898 0.0767965 10.00453491 0.98345296 12 3 C13.6027385 4.10216674 15.23425018 5.16294411 16.8828125 6.1953125 C17.87394043 6.82099121 18.86506836 7.44666992 19.88623047 8.09130859 C20.95502441 8.76242676 22.02381836 9.43354492 23.125 10.125 C35.52233558 17.97585781 47.66967175 26.15294329 59.76123047 34.46630859 C61.49895624 35.65675498 63.24738259 36.83158839 65 38 C64.67 38.99 64.34 39.98 64 41 C58.05190868 37.22478285 52.11295912 33.435646 46.1875 29.625 C45.59662598 29.24529053 45.00575195 28.86558105 44.39697266 28.47436523 C41.470508 26.5928406 38.5468356 24.70723719 35.62890625 22.8125 C28.99507919 18.51272604 22.30655652 14.31254561 15.5625 10.1875 C14.81709961 9.73133301 14.07169922 9.27516602 13.30371094 8.80517578 C8.90935899 6.12850833 4.47939126 3.53182984 0 1 C0 0.67 0 0.34 0 0 Z " fill="#EA252D" transform="translate(1388,0)"/>
<path d="M0 0 C9.57 0 19.14 0 29 0 C29 0.33 29 0.66 29 1 C27.45119141 1.16435547 27.45119141 1.16435547 25.87109375 1.33203125 C21.81130818 1.76825734 17.75426183 2.22672538 13.69775391 2.69238281 C11.95569023 2.89102537 10.21319727 3.08595452 8.47021484 3.27636719 C-6.41332654 4.91952399 -21.00992393 7.63333984 -35.66357422 10.6628418 C-36.79701515 10.89287903 -36.79701515 10.89287903 -37.95335388 11.12756348 C-39.36769827 11.41484283 -40.78081123 11.70829031 -42.192276 12.00939941 C-46.89871172 12.95948829 -51.22702031 13.12119218 -56 13 C-55.67 12.34 -55.34 11.68 -55 11 C-52.52587891 10.26977539 -52.52587891 10.26977539 -49.2265625 9.59765625 C-47.41309326 9.22374756 -47.41309326 9.22374756 -45.56298828 8.84228516 C-44.25044592 8.5817495 -42.9377805 8.32183307 -41.625 8.0625 C-40.29797712 7.79494356 -38.97099154 7.52720208 -37.64404297 7.25927734 C-30.1591054 5.76057271 -22.66166595 4.34046681 -15.125 3.125 C-14.39104004 3.00519775 -13.65708008 2.88539551 -12.90087891 2.76196289 C-8.53852984 2.09803814 -4.39526147 1.89671709 0 2 C0 1.34 0 0.68 0 0 Z " fill="#EA232B" transform="translate(981,0)"/>
<path d="M0 0 C5.95703125 -0.29296875 5.95703125 -0.29296875 8 0 C8.43425293 0.43747559 8.86850586 0.87495117 9.31591797 1.32568359 C11.35745912 3.3553863 13.50537762 4.62396758 15.98828125 6.08203125 C16.99511963 6.67814209 18.00195801 7.27425293 19.03930664 7.88842773 C20.11946045 8.52337158 21.19961426 9.15831543 22.3125 9.8125 C34.36834563 16.9643623 46.22119545 24.39968516 58 32 C56.27734375 32.68530273 56.27734375 32.68530273 54 33 C51.87890625 31.83227539 51.87890625 31.83227539 49.5625 30.03515625 C43.64267296 25.66147172 37.39750744 22.06300161 31 18.4375 C28.7703613 17.16619209 26.54118786 15.89406782 24.3125 14.62109375 C23.24692871 14.01330078 22.18135742 13.40550781 21.08349609 12.77929688 C17.41831218 10.66434356 13.79385347 8.48773275 10.18212891 6.28295898 C6.87223056 4.33694021 3.45853901 2.66522249 0 1 C0 0.67 0 0.34 0 0 Z " fill="#EA272F" transform="translate(1374,0)"/>
<path d="M0 0 C4.62 0 9.24 0 14 0 C14 0.66 14 1.32 14 2 C14.87994629 2.12076904 15.75989258 2.24153809 16.66650391 2.3659668 C19.8472556 2.97094791 22.38347805 3.84375395 25.3359375 5.14453125 C26.31820312 5.57443359 27.30046875 6.00433594 28.3125 6.44726562 C29.323125 6.89779297 30.33375 7.34832031 31.375 7.8125 C32.37789062 8.25142578 33.38078125 8.69035156 34.4140625 9.14257812 C40.02500408 11.61388944 45.54259952 14.20617565 51 17 C51 17.66 51 18.32 51 19 C44.17563088 16.79994671 37.53231048 14.28379856 30.875 11.625 C22.9407244 8.4814707 15.00062673 5.54379939 6.86328125 2.97265625 C4 2 4 2 0 0 Z " fill="#EA2C33" transform="translate(2390,0)"/>
<path d="M0 0 C0.99 1.485 0.99 1.485 2 3 C0.74445313 2.97035156 -0.51109375 2.94070313 -1.8046875 2.91015625 C-9.41159448 2.91149597 -16.97407233 3.60619671 -24.55029297 4.22680664 C-27.12563991 4.43755237 -29.70142255 4.64210882 -32.27734375 4.84570312 C-33.93752903 4.97880503 -35.59768632 5.11225664 -37.2578125 5.24609375 C-38.39562668 5.33678383 -38.39562668 5.33678383 -39.556427 5.42930603 C-43.16999856 5.72709984 -46.76420702 6.07966918 -50.36083984 6.54101562 C-53.46457986 6.93247083 -56.37892863 7.10584821 -59.5 7.0625 C-60.3559375 7.05347656 -61.211875 7.04445313 -62.09375 7.03515625 C-62.7228125 7.02355469 -63.351875 7.01195312 -64 7 C-60.33026357 4.55350905 -57.12252612 4.3728801 -52.8515625 3.96484375 C-51.63900284 3.83946983 -51.63900284 3.83946983 -50.40194702 3.71156311 C-47.81035607 3.44574333 -45.21775677 3.19166822 -42.625 2.9375 C-40.91789427 2.76309734 -39.21086194 2.58797456 -37.50390625 2.41210938 C-5.19394649 -0.88497263 -5.19394649 -0.88497263 0 0 Z " fill="#EA252D" transform="translate(1031,9)"/>
<path d="M0 0 C5.94 0 11.88 0 18 0 C18 0.33 18 0.66 18 1 C16.8039917 1.2673999 15.6079834 1.5347998 14.37573242 1.81030273 C9.94178662 2.80206147 5.5083006 3.79586225 1.07495117 4.7902832 C-0.8445201 5.22052911 -2.7641159 5.65021985 -4.68383789 6.0793457 C-7.44189797 6.69597066 -10.19950522 7.31458552 -12.95703125 7.93359375 C-14.24623222 8.22114784 -14.24623222 8.22114784 -15.56147766 8.51451111 C-16.36208115 8.69462234 -17.16268463 8.87473358 -17.98754883 9.06030273 C-19.04344963 9.29679787 -19.04344963 9.29679787 -20.12068176 9.53807068 C-21.7694794 9.94333891 -23.38925533 10.46308511 -25 11 C-26.39439664 11.06665376 -27.79169875 11.08538199 -29.1875 11.0625 C-31.0746875 11.0315625 -31.0746875 11.0315625 -33 11 C-30.70976403 8.70976403 -29.39509444 8.37504669 -26.30859375 7.52734375 C-25.36306641 7.26759766 -24.41753906 7.00785156 -23.44335938 6.74023438 C-22.45142578 6.47533203 -21.45949219 6.21042969 -20.4375 5.9375 C-19.47263672 5.66873047 -18.50777344 5.39996094 -17.51367188 5.12304688 C-11.65956678 3.53797183 -6.04448514 2.50526656 0 2 C0 1.34 0 0.68 0 0 Z " fill="#EA232B" transform="translate(916,0)"/>
<path d="M0 0 C-1.43240287 2.93242992 -2.85837224 5.5157118 -5 8 C-7.88211302 8.96070434 -9.69850044 9.10581883 -12.6875 9.0625 C-13.89986328 9.04896484 -13.89986328 9.04896484 -15.13671875 9.03515625 C-16.05904297 9.01775391 -16.05904297 9.01775391 -17 9 C-12.00693219 0.97542673 -9.21812824 -0.53181509 0 0 Z " fill="#E4212A" transform="translate(877,108)"/>
<path d="M0 0 C2.75 -0.25 2.75 -0.25 6 0 C7.36155731 1.30449885 8.69082634 2.64293704 10 4 C11.77662977 5.26805513 13.5871225 6.48947894 15.421875 7.671875 C16.44667969 8.33574219 17.47148438 8.99960938 18.52734375 9.68359375 C19.59082031 10.36550781 20.65429688 11.04742187 21.75 11.75 C22.82894531 12.44738281 23.90789062 13.14476562 25.01953125 13.86328125 C27.6768656 15.57996627 30.3370683 17.29201567 33 19 C32.01 19.33 31.02 19.66 30 20 C27.63436211 18.62307744 25.47141874 17.2083245 23.25 15.625 C17.16447912 11.41090644 10.97331946 7.5001926 4.57324219 3.78173828 C3.03409804 2.87915375 1.51462589 1.94315002 0 1 C0 0.67 0 0.34 0 0 Z " fill="#EA2B33" transform="translate(1402,0)"/>
<path d="M0 0 C-1.29731506 2.89401051 -2.37714667 5.16400267 -5 7 C-7.67931112 7.55177892 -10.26287955 7.77564586 -13 8 C-9.21111354 1.99004216 -7.27386155 -0.32328274 0 0 Z " fill="#E4212A" transform="translate(882,119)"/>
<path d="M0 0 C6.07002668 1.70386714 11.45042276 4.11893183 17 7.0625 C17.6710376 7.41505859 18.3420752 7.76761719 19.03344727 8.13085938 C23.87370924 10.74741848 23.87370924 10.74741848 25 13 C18.82994349 11.30099893 13.72420611 8.82606218 8.30859375 5.4296875 C5.60933823 3.75806733 2.86674413 2.35793143 0 1 C0 0.67 0 0.34 0 0 Z " fill="#E5272F" transform="translate(1162,85)"/>
<path d="M0 0 C2.6875 -0.3125 2.6875 -0.3125 6 0 C8.375 2.125 8.375 2.125 11 5 C13.60790504 7.08144945 16.29508018 9.04681968 19 11 C14.98852124 11 13.35081663 9.44339089 10.0625 7.1875 C9.02222656 6.47980469 7.98195313 5.77210937 6.91015625 5.04296875 C4.57197061 3.40153105 2.26990807 1.73388158 0 0 Z " fill="#EA2931" transform="translate(1413,0)"/>
<path d="M0 0 C1.65 0.33 3.3 0.66 5 1 C4.01 2.485 4.01 2.485 3 4 C-0.125 4.1875 -0.125 4.1875 -3 4 C-2.01 2.68 -1.02 1.36 0 0 Z " fill="#E4212A" transform="translate(905,119)"/>
<path d="M0 0 C1.77049689 -0.05410687 3.54146849 -0.09284119 5.3125 -0.125 C6.29863281 -0.14820313 7.28476563 -0.17140625 8.30078125 -0.1953125 C11 0 11 0 14 2 C11.69 2.33 9.38 2.66 7 3 C7 2.34 7 1.68 7 1 C4.69 1 2.38 1 0 1 C0 0.67 0 0.34 0 0 Z " fill="#E82932" transform="translate(1956,48)"/>
<path d="M0 0 C3.3 0 6.6 0 10 0 C10.33 0.66 10.66 1.32 11 2 C9.02 2.33 7.04 2.66 5 3 C5 2.34 5 1.68 5 1 C3.35 1 1.7 1 0 1 C0 0.67 0 0.34 0 0 Z " fill="#E52730" transform="translate(2027,102)"/>
<path d="M0 0 C2.97 0.33 5.94 0.66 9 1 C8.67 1.66 8.34 2.32 8 3 C6.02 3 4.04 3 2 3 C2 2.34 2 1.68 2 1 C1.34 0.67 0.68 0.34 0 0 Z " fill="#E92830" transform="translate(1953,37)"/>
<path d="M0 0 C4 0 4 0 5.625 1.4375 C6.07875 1.953125 6.5325 2.46875 7 3 C7.66 3.33 8.32 3.66 9 4 C9 4.66 9 5.32 9 6 C5.06326356 4.68775452 2.77280706 3.08089673 0 0 Z " fill="#EB2A32" transform="translate(2464,0)"/>
</svg>
